<svg width="32" height="40" viewBox="0 0 32 40" fill="none" xmlns="http://www.w3.org/2000/svg">
<path d="M24.668 16.463C26.668 15.1822 28 12.9462 28 10.3998C28 6.4294 24.7696 3.1998 20.8 3.1998C20.1144 3.1998 19.436 3.3022 18.7752 3.4982C17.308 1.8478 15.1768 0.799805 12.8 0.799805C8.3888 0.799805 4.8 4.3886 4.8 8.7998C4.8 11.5446 6.1912 13.971 8.304 15.4118C3.5704 16.3846 0 20.583 0 25.5998V39.1998H25.6V35.9998H32V26.3998C32 21.7326 28.9096 17.775 24.668 16.463ZM19.7776 4.8958C20.1152 4.8318 20.4568 4.7998 20.8 4.7998C23.888 4.7998 26.4 7.3126 26.4 10.3998C26.4 13.487 23.888 15.9998 20.8 15.9998C19.7016 15.9998 18.644 15.6798 17.7392 15.0846C17.7512 15.075 17.7608 15.0646 17.7728 15.055C18.4592 14.5078 19.052 13.851 19.5288 13.1102C19.5472 13.0814 19.564 13.051 19.5824 13.0222C19.7168 12.807 19.8416 12.5854 19.9552 12.3566C19.976 12.3142 19.9968 12.271 20.0168 12.2286C20.1208 12.011 20.2144 11.7878 20.2992 11.5598C20.3184 11.5086 20.3376 11.4574 20.356 11.4054C20.4328 11.1846 20.4976 10.9598 20.5552 10.7302C20.5704 10.671 20.5872 10.6118 20.6008 10.5526C20.6512 10.327 20.6904 10.0974 20.7208 9.8646C20.7296 9.80221 20.7424 9.7414 20.7488 9.679C20.7808 9.391 20.8 9.0974 20.8 8.7998C20.8 8.483 20.7768 8.1718 20.7408 7.8646C20.7296 7.76781 20.7112 7.67261 20.6968 7.57581C20.6632 7.35981 20.6232 7.147 20.5728 6.9374C20.5488 6.8366 20.5232 6.7366 20.4952 6.6374C20.4296 6.4046 20.3536 6.1774 20.268 5.9534C20.2448 5.8934 20.2264 5.8318 20.2016 5.7718C20.08 5.475 19.9408 5.1878 19.7856 4.9102C19.7824 4.9054 19.78 4.9006 19.7776 4.8958ZM6.4 8.7998C6.4 5.27101 9.2712 2.3998 12.8 2.3998C14.7816 2.3998 16.5544 3.3054 17.7296 4.723L17.7808 4.7894C17.82 4.8374 17.8544 4.8894 17.892 4.9382C18.2984 5.4734 18.6096 6.0566 18.8288 6.6718C18.844 6.7142 18.8608 6.755 18.8744 6.7974C18.9696 7.083 19.0408 7.37661 19.0944 7.67421C19.1056 7.73741 19.1144 7.8014 19.124 7.8654C19.1688 8.1734 19.2 8.4838 19.2 8.7998C19.2 9.0622 19.18 9.3214 19.148 9.5782C19.1408 9.639 19.1296 9.6982 19.1208 9.7582C19.088 9.96941 19.0472 10.1782 18.9936 10.3838C18.9824 10.4278 18.972 10.4718 18.96 10.5158C18.8152 11.0302 18.6088 11.5238 18.3432 11.9846C18.3376 11.9934 18.332 12.0022 18.3272 12.011C18.1984 12.2318 18.056 12.4438 17.9016 12.6486C17.8872 12.6678 17.8728 12.6878 17.8584 12.707C17.532 13.1294 17.152 13.5118 16.7248 13.8446C16.7024 13.8622 16.6792 13.8782 16.6568 13.8958C16.4536 14.0494 16.2416 14.1934 16.0192 14.323C15.9936 14.3382 15.9688 14.3542 15.9432 14.3694L15.8192 14.4414C14.9184 14.9238 13.8912 15.1998 12.8 15.1998C9.2712 15.1998 6.4 12.3286 6.4 8.7998ZM24 37.5998H1.6V25.5998C1.6 20.7478 5.548 16.7998 10.4 16.7998H15.2C16.396 16.7998 17.5368 17.0414 18.5776 17.4758L18.7312 17.5446C18.82 17.5838 18.9056 17.6286 18.9928 17.671C19.2304 17.7846 19.46 17.9086 19.684 18.0414C19.7856 18.1022 19.8888 18.1614 19.988 18.2262C20.0944 18.295 20.1968 18.3678 20.3 18.4414C20.4064 18.5174 20.5112 18.5958 20.6144 18.6766C20.7064 18.7486 20.7976 18.8198 20.8864 18.895C21.0216 19.0102 21.152 19.1302 21.28 19.2534C21.3808 19.3502 21.4792 19.4494 21.5752 19.551C21.6832 19.6654 21.7904 19.7806 21.8928 19.8998C21.9688 19.9894 22.0416 20.0806 22.1136 20.1726C22.1952 20.2766 22.2736 20.3822 22.3512 20.4902C22.4216 20.5878 22.492 20.6854 22.5584 20.7862C22.6496 20.9246 22.7336 21.0678 22.8168 21.211C22.904 21.3614 22.9848 21.5142 23.0632 21.6694C23.1208 21.783 23.1768 21.8974 23.2296 22.0142C23.2816 22.1294 23.3304 22.247 23.3768 22.3646C23.4264 22.4902 23.472 22.6174 23.5168 22.7454C23.5536 22.8526 23.5936 22.959 23.6264 23.0678C23.6936 23.291 23.752 23.5174 23.8016 23.747C23.8208 23.835 23.8344 23.9254 23.8512 24.0142C23.884 24.1918 23.912 24.371 23.9336 24.5518C23.944 24.6366 23.9544 24.7214 23.9616 24.807C23.9832 25.0686 24 25.3326 24 25.5998V35.9998V37.5998ZM30.4 34.3998H25.6V25.5998C25.6 25.2198 25.5768 24.8454 25.5368 24.4758C25.5272 24.387 25.5088 24.3006 25.4968 24.2126C25.4584 23.9286 25.4144 23.647 25.3536 23.371C25.3328 23.2782 25.3056 23.1878 25.2824 23.0958C25.2152 22.827 25.1416 22.5606 25.0544 22.3006C25.024 22.2102 24.9888 22.1214 24.956 22.0318C24.8624 21.7758 24.7608 21.5246 24.648 21.2782C24.6064 21.1886 24.5632 21.1006 24.5192 21.0118C24.4008 20.7726 24.2744 20.5382 24.1384 20.3094C24.0864 20.2222 24.0344 20.1358 23.9808 20.0494C23.8384 19.8254 23.6872 19.6086 23.5288 19.3958C23.4688 19.3158 23.4112 19.2342 23.3496 19.1558C23.1752 18.9358 22.9904 18.7262 22.8 18.5214C22.744 18.4614 22.6928 18.399 22.6352 18.3398C22.3824 18.0814 22.1192 17.8334 21.8408 17.6022C26.5816 17.7302 30.4 21.6278 30.4 26.3998V34.3998Z" fill="#CE2127"/>
</svg>
