<svg width="17" height="16" viewBox="0 0 17 16" fill="none" xmlns="http://www.w3.org/2000/svg">
<path d="M7.42121 1.37458C7.72057 0.453267 9.02398 0.453265 9.32333 1.37458L10.5052 5.01186C10.639 5.42389 11.023 5.70285 11.4562 5.70285H15.2807C16.2494 5.70285 16.6522 6.94246 15.8685 7.51186L12.7744 9.75983C12.4239 10.0145 12.2773 10.4658 12.4111 10.8779L13.593 14.5152C13.8923 15.4365 12.8378 16.2026 12.0541 15.6332L8.96006 13.3852C8.60957 13.1306 8.13497 13.1306 7.78449 13.3852L4.69042 15.6332C3.90671 16.2026 2.85223 15.4365 3.15158 14.5152L4.33341 10.8779C4.46728 10.4658 4.32062 10.0145 3.97014 9.75983L0.876076 7.51186C0.0923627 6.94246 0.495138 5.70285 1.46386 5.70285H5.28833C5.72156 5.70285 6.10551 5.42389 6.23939 5.01186L7.42121 1.37458Z" fill="#C4C4C4"/>
</svg>
