<svg width="80" height="80" viewBox="0 0 80 80" fill="none" xmlns="http://www.w3.org/2000/svg">
<path d="M2.08407 51.2713H49.8514C50.2982 51.2714 50.7273 51.0968 51.0469 50.7847C51.3666 50.4727 51.5516 50.0481 51.5623 49.6015V1.79302C51.5623 1.33927 51.382 0.904108 51.0612 0.583245C50.7404 0.262397 50.3052 0.0821533 49.8514 0.0821533H2.08407C1.63033 0.0821533 1.19516 0.262397 0.874315 0.583245C0.553466 0.904108 0.373209 1.33927 0.373209 1.79302V49.6015C0.383926 50.0481 0.568905 50.4727 0.888604 50.7847C1.20829 51.0968 1.63735 51.2714 2.08407 51.2713ZM3.79494 3.50388H48.1406V47.8496H3.79494V3.50388Z" fill="#CE2127"/>
<path d="M50.0567 56.1711C49.603 56.1711 49.1678 56.3513 48.847 56.6722C48.5261 56.993 48.3459 57.4281 48.3459 57.8819V67.0522L38.765 60.7151C38.4408 60.5122 38.0584 60.4227 37.6777 60.4608C37.2971 60.499 36.94 60.6626 36.6626 60.9259C36.3851 61.1893 36.2032 61.5373 36.1452 61.9155C36.0873 62.2935 36.1567 62.6802 36.3424 63.0145L39.6136 68.4893H12.6504L15.9079 63.2883C16.1007 62.9584 16.1786 62.5738 16.1292 62.1948C16.0798 61.816 15.906 61.4642 15.6351 61.1947C15.3641 60.9254 15.0112 60.7536 14.6321 60.7064C14.2528 60.6592 13.8688 60.7394 13.54 60.9341L3.79494 67.1206V57.8819C3.79494 57.4281 3.61468 56.993 3.29383 56.6722C2.97299 56.3513 2.53782 56.1711 2.08407 56.1711C1.63033 56.1711 1.19516 56.3513 0.874315 56.6722C0.553466 56.993 0.373209 57.4281 0.373209 57.8819V70.2002C0.38988 70.4712 0.467444 70.7351 0.600138 70.972C0.732847 71.2089 0.917264 71.413 1.13968 71.5689L13.321 79.7126C13.6004 79.8998 13.9291 79.9999 14.2654 80C14.5633 79.9981 14.8555 79.9191 15.1138 79.7708C15.3719 79.6224 15.5873 79.4097 15.739 79.1533C15.8905 78.897 15.9732 78.6057 15.9788 78.308C15.9844 78.0102 15.9128 77.7161 15.771 77.4542L12.4998 71.9795H39.5041L36.3014 77.1531C36.0994 77.4809 36.0138 77.8673 36.0586 78.2497C36.1033 78.6321 36.2758 78.9883 36.548 79.2606C36.8203 79.5329 37.1765 79.7053 37.5589 79.7501C37.9414 79.7949 38.3277 79.7093 38.6555 79.5073L50.9738 71.6921C51.282 71.4999 51.5178 71.2111 51.6444 70.8708C51.7302 70.6669 51.7766 70.4486 51.7813 70.2276V57.9093C51.785 57.6812 51.743 57.4546 51.6577 57.2429C51.5726 57.0313 51.4458 56.8389 51.2851 56.6768C51.1245 56.5149 50.933 56.3867 50.7221 56.2999C50.5111 56.213 50.2849 56.1692 50.0567 56.1711Z" fill="#CE2127"/>
<path d="M79.9765 36.3251C79.706 36.0472 79.351 35.8668 78.9671 35.8124C78.5832 35.7579 78.192 35.8324 77.855 36.024L72.3802 39.3088V12.3593L77.5813 15.6168C77.9089 15.8188 78.2953 15.9045 78.6779 15.8597C79.0603 15.815 79.4164 15.6424 79.6888 15.3701C79.961 15.0979 80.1335 14.7416 80.1782 14.3592C80.223 13.9768 80.1374 13.5904 79.9354 13.2626L72.2571 1.08127C72.1294 0.763908 71.9104 0.491648 71.6276 0.299114C71.345 0.10658 71.0114 0.00246365 70.6694 0H58.3511C57.8973 0 57.4622 0.180257 57.1414 0.501106C56.8205 0.821955 56.6403 1.25712 56.6403 1.71087C56.6403 2.16461 56.8205 2.59978 57.1414 2.92063C57.4622 3.24147 57.8973 3.42173 58.3511 3.42173H67.5077L61.1159 13.0026C60.9189 13.3257 60.8348 13.705 60.8765 14.0811C60.9181 14.4572 61.0833 14.8088 61.3461 15.0811C61.6089 15.3533 61.9546 15.5307 62.329 15.5856C62.7034 15.6403 63.0855 15.5695 63.4153 15.3841L68.8901 12.1129V39.0762L63.6754 35.9145C63.3466 35.7197 62.9624 35.6396 62.5833 35.6869C62.204 35.7339 61.8513 35.9057 61.5803 36.1752C61.3093 36.4446 61.1355 36.7963 61.0861 37.1753C61.0368 37.5542 61.1145 37.9388 61.3075 38.2686L67.4666 48.0274H58.2827C57.8289 48.0274 57.3937 48.2077 57.0729 48.5285C56.7521 48.8493 56.5718 49.2845 56.5718 49.7383C56.5718 50.192 56.7521 50.6272 57.0729 50.9481C57.3937 51.2689 57.8289 51.4491 58.2827 51.4491H70.6009C70.8072 51.4426 71.0109 51.4008 71.2032 51.326C71.549 51.2108 71.8474 50.9847 72.0518 50.6827L80.0997 38.4466C80.3213 38.1308 80.4297 37.7495 80.4073 37.3643C80.3849 36.9793 80.2331 36.6131 79.9765 36.3251Z" fill="#CE2127"/>
</svg>
