<svg width="40" height="40" viewBox="0 0 40 40" fill="none" xmlns="http://www.w3.org/2000/svg">
<rect y="0.0361328" width="39.8887" height="39.9282" rx="19.9444" fill="#CE2127"/>
<path d="M29.8881 24.9562V27.9562C29.8892 28.2347 29.8322 28.5104 29.7206 28.7656C29.6091 29.0208 29.4454 29.2498 29.2402 29.4381C29.035 29.6264 28.7927 29.7697 28.5289 29.8589C28.265 29.9482 27.9855 29.9813 27.7081 29.9562C24.631 29.6219 21.6751 28.5704 19.0781 26.8862C16.6619 25.3509 14.6135 23.3024 13.0781 20.8862C11.3881 18.2774 10.3364 15.3072 10.0081 12.2162C9.98313 11.9397 10.016 11.661 10.1046 11.3979C10.1932 11.1347 10.3357 10.8929 10.5229 10.6879C10.7101 10.4828 10.9379 10.3189 11.1919 10.2068C11.4459 10.0946 11.7205 10.0365 11.9981 10.0362H14.9981C15.4834 10.0315 15.9539 10.2033 16.3219 10.5198C16.6898 10.8362 16.9302 11.2757 16.9981 11.7562C17.1247 12.7163 17.3596 13.659 17.6981 14.5662C17.8327 14.9242 17.8618 15.3131 17.782 15.6871C17.7023 16.0611 17.517 16.4043 17.2481 16.6762L15.9781 17.9462C17.4017 20.4498 19.4746 22.5227 21.9781 23.9462L23.2481 22.6762C23.52 22.4074 23.8633 22.2221 24.2372 22.1423C24.6112 22.0626 25.0002 22.0917 25.3581 22.2262C26.2654 22.5648 27.2081 22.7996 28.1681 22.9262C28.6539 22.9948 29.0975 23.2394 29.4146 23.6137C29.7318 23.988 29.9003 24.4658 29.8881 24.9562Z" stroke="white" stroke-linecap="round" stroke-linejoin="round"/>
</svg>
