<svg width="78" height="77" viewBox="0 0 78 77" fill="none" xmlns="http://www.w3.org/2000/svg">
<path d="M63.0001 9.69961C63.0001 4.40521 58.6945 0.0996094 53.4001 0.0996094H47.0001C43.6625 0.0996094 40.7217 1.81321 39.0001 4.40361C37.2785 1.81161 34.3377 0.0996094 31.0001 0.0996094H24.6001C19.3057 0.0996094 15.0001 4.40521 15.0001 9.69961C15.0001 12.1604 15.9377 14.3988 17.4641 16.0996H0.600098V35.2996H3.8001V76.8996H31.0001H34.2001H43.8001H47.0001H74.2001V35.2996H77.4001V16.0996H60.5361C62.0625 14.3988 63.0001 12.1604 63.0001 9.69961ZM47.0001 3.29961H53.4001C56.9297 3.29961 59.8001 6.17001 59.8001 9.69961C59.8001 13.2292 56.9297 16.0996 53.4001 16.0996H47.0001H43.8001H40.6001V9.69961C40.6001 6.17001 43.4705 3.29961 47.0001 3.29961ZM18.2001 9.69961C18.2001 6.17001 21.0705 3.29961 24.6001 3.29961H31.0001C34.5297 3.29961 37.4001 6.17001 37.4001 9.69961V16.0996H34.2001H31.0001H24.6001C21.0705 16.0996 18.2001 13.2292 18.2001 9.69961ZM3.8001 19.2996H24.6001H31.0001V32.0996H3.8001V19.2996ZM31.0001 73.6996H7.0001V35.2996H31.0001V73.6996ZM43.8001 73.6996H34.2001V35.2996V32.0996V19.2996H37.4001H40.6001H43.8001V32.0996V35.2996V73.6996ZM71.0001 73.6996H47.0001V35.2996H71.0001V73.6996ZM74.2001 32.0996H47.0001V19.2996H53.4001H74.2001V32.0996Z" fill="#CE2127"/>
</svg>
