<svg width="41" height="40" viewBox="0 0 41 40" fill="none" xmlns="http://www.w3.org/2000/svg">
<path fill-rule="evenodd" clip-rule="evenodd" d="M18.0512 0.202008C17.817 -0.0322417 17.4492 -0.0668452 17.1754 0.119603L0.96852 11.1543C0.787633 11.2775 0.675926 11.4791 0.667503 11.6978C0.65909 11.9165 0.754943 12.1262 0.925831 12.2629L3.77242 14.5403L1.55865 16.754C1.30643 17.0063 1.28815 17.4092 1.51649 17.6833L4.22362 20.9319C2.94821 21.4378 2.04635 22.6828 2.04635 24.1384C2.04635 26.0429 3.59019 27.5868 5.49462 27.5868H6.18423V29.2893C6.18423 31.4703 7.32897 33.4915 9.19966 34.6129L16.0571 38.724C18.8949 40.4253 22.4391 40.4253 25.2769 38.724L32.1343 34.6129C34.005 33.4915 35.1497 31.4703 35.1497 29.2893V27.5868H35.8394C37.7438 27.5868 39.2877 26.0429 39.2877 24.1384C39.2877 22.6828 38.3858 21.4378 37.1103 20.9319L39.8175 17.6833C40.0458 17.4092 40.0276 17.0063 39.7753 16.754L37.5615 14.5403L40.4082 12.2629C40.5663 12.1365 40.6608 11.9468 40.6667 11.7444C40.6726 11.542 40.5892 11.3472 40.4387 11.2117L30.0939 1.90122C29.8709 1.70063 29.544 1.66703 29.285 1.81813L26.0105 3.72829L25.4852 0.576301C25.4456 0.338749 25.285 0.139051 25.0614 0.0494823C24.8378 -0.0400866 24.5838 -0.00655203 24.3911 0.137948L20.7317 2.88257L18.0512 0.202008ZM35.5164 20.6901L38.3546 17.284L36.0414 14.9708C35.9027 14.832 35.8296 14.6408 35.8404 14.4449C35.8513 14.249 35.9451 14.0671 36.0982 13.9445L38.912 11.6934L29.5453 3.26318L25.8421 5.42341C25.6462 5.53764 25.4068 5.54834 25.2016 5.45202C24.9964 5.35571 24.8516 5.1647 24.8143 4.94107L24.3111 1.9221L21.0808 4.34492C20.8062 4.55085 20.422 4.52355 20.1793 4.28086L17.4797 1.58114L2.51647 11.769L5.23575 13.9445C5.38893 14.0671 5.48267 14.249 5.49353 14.4449C5.50437 14.6408 5.43129 14.832 5.29259 14.9708L2.9793 17.284L5.81759 20.6901H6.18423V17.9315C6.18423 17.6815 6.31936 17.4513 6.53746 17.3294L18.2616 10.7775C18.4347 10.6808 18.6412 10.6633 18.8283 10.7295C19.0153 10.7957 19.1647 10.9392 19.2384 11.1234L21.0041 15.5378L26.5142 12.1704C26.7456 12.029 27.0384 12.0364 27.2624 12.189L34.8486 17.3616C35.037 17.4901 35.1497 17.7034 35.1497 17.9315V20.6901H35.5164ZM35.8394 26.2074H35.1497V22.0694H35.8394C36.9821 22.0694 37.9084 22.9958 37.9084 24.1384C37.9084 25.2811 36.9821 26.2074 35.8394 26.2074ZM6.18423 22.0694H5.49462C4.35197 22.0694 3.42566 22.9958 3.42566 24.1384C3.42566 25.2811 4.35197 26.2074 5.49462 26.2074H6.18423V22.0694ZM7.56354 18.3361V29.2893C7.56354 30.9857 8.45389 32.5576 9.90889 33.4299L16.7663 37.541C19.1675 38.9806 22.1665 38.9806 24.5677 37.541L31.4251 33.4299C32.8801 32.5576 33.7704 30.9857 33.7704 29.2893V18.2959L26.8534 13.5796L21.0266 17.1406C20.8534 17.2465 20.6422 17.2706 20.4495 17.2065C20.2567 17.1425 20.1021 16.9968 20.0266 16.8083L18.2492 12.3646L7.56354 18.3361ZM16.5291 24.1383C16.5291 25.281 15.6028 26.2074 14.4601 26.2074C13.3174 26.2074 12.3911 25.281 12.3911 24.1383C12.3911 22.9957 13.3174 22.0694 14.4601 22.0694C15.6028 22.0694 16.5291 22.9957 16.5291 24.1383ZM26.8739 26.2074C28.0166 26.2074 28.9429 25.281 28.9429 24.1383C28.9429 22.9957 28.0166 22.0694 26.8739 22.0694C25.7312 22.0694 24.8049 22.9957 24.8049 24.1383C24.8049 25.281 25.7312 26.2074 26.8739 26.2074ZM14.4603 19.3107C13.9956 19.3107 13.5994 19.3915 13.3894 19.4965C13.0487 19.6669 12.6344 19.5288 12.4641 19.1881C12.2937 18.8474 12.4318 18.4332 12.7725 18.2628C13.2522 18.023 13.8904 17.9314 14.4603 17.9314C15.0301 17.9314 15.6684 18.023 16.148 18.2628C16.4887 18.4332 16.6268 18.8474 16.4565 19.1881C16.2861 19.5288 15.8719 19.6669 15.5312 19.4965C15.3212 19.3915 14.9249 19.3107 14.4603 19.3107ZM25.8032 19.4965C26.0132 19.3915 26.4094 19.3107 26.8741 19.3107C27.3387 19.3107 27.735 19.3915 27.945 19.4965C28.2857 19.6669 28.6999 19.5288 28.8703 19.1881C29.0406 18.8474 28.9025 18.4332 28.5618 18.2628C28.0821 18.023 27.4439 17.9314 26.8741 17.9314C26.3042 17.9314 25.6659 18.023 25.1863 18.2628C24.8456 18.4332 24.7075 18.8474 24.8778 19.1881C25.0483 19.5288 25.4625 19.6669 25.8032 19.4965ZM15.8394 29.6558C16.2203 29.6558 16.5291 29.9646 16.5291 30.3454C16.5291 30.7821 16.6292 31.2179 16.8278 31.6289C17.0266 32.0403 17.3217 32.4217 17.7022 32.7478C18.0828 33.074 18.5402 33.3374 19.0503 33.5185C19.5604 33.6996 20.11 33.7938 20.667 33.7938C21.224 33.7938 21.7735 33.6996 22.2837 33.5185C22.7938 33.3374 23.2511 33.074 23.6318 32.7478C24.0122 32.4217 24.3073 32.0403 24.5061 31.6289C24.7047 31.2179 24.8049 30.7821 24.8049 30.3454C24.8049 29.9646 25.1137 29.6558 25.4946 29.6558C25.8754 29.6558 26.1842 29.9646 26.1842 30.3454C26.1842 30.9955 26.0347 31.6359 25.748 32.229C25.4616 32.8216 25.0455 33.3527 24.5294 33.7951C24.0134 34.2373 23.4065 34.5836 22.7452 34.8183C22.0839 35.0532 21.3779 35.1731 20.667 35.1731C19.956 35.1731 19.2501 35.0532 18.5888 34.8183C17.9275 34.5836 17.3205 34.2373 16.8046 33.7951C16.2885 33.3527 15.8723 32.8216 15.586 32.229C15.2993 31.6359 15.1497 30.9955 15.1497 30.3454C15.1497 29.9646 15.4585 29.6558 15.8394 29.6558Z" fill="#CE2127"/>
</svg>
