<svg width="17" height="16" viewBox="0 0 17 16" fill="none" xmlns="http://www.w3.org/2000/svg">
<path d="M7.77992 1.37458C8.07927 0.453267 9.38268 0.453265 9.68203 1.37458L10.8639 5.01186C10.9977 5.42389 11.3817 5.70285 11.8149 5.70285H15.6394C16.6081 5.70285 17.0109 6.94246 16.2272 7.51186L13.1331 9.75983C12.7826 10.0145 12.636 10.4658 12.7698 10.8779L13.9517 14.5152C14.251 15.4365 13.1965 16.2026 12.4128 15.6332L9.31876 13.3852C8.96827 13.1306 8.49368 13.1306 8.14319 13.3852L5.04913 15.6332C4.26541 16.2026 3.21093 15.4365 3.51029 14.5152L4.69211 10.8779C4.82599 10.4658 4.67933 10.0145 4.32884 9.75983L1.23478 7.51186C0.451066 6.94246 0.853841 5.70285 1.82256 5.70285H5.64703C6.08026 5.70285 6.46422 5.42389 6.59809 5.01186L7.77992 1.37458Z" fill="#CE2127"/>
</svg>
