<svg width="80" height="80" viewBox="0 0 80 80" fill="none" xmlns="http://www.w3.org/2000/svg">
<path d="M21.25 40C21.0028 40 20.7612 39.9266 20.5557 39.7893C20.3502 39.6519 20.19 39.4567 20.0954 39.2283C20.0008 39 19.9761 38.7487 20.0243 38.5062C20.0725 38.2638 20.1915 38.0411 20.3662 37.8663L29.1162 29.1163C29.352 28.8886 29.6678 28.7626 29.9955 28.7654C30.3232 28.7683 30.6368 28.8997 30.8685 29.1315C31.1003 29.3633 31.2317 29.6768 31.2346 30.0045C31.2374 30.3323 31.1114 30.648 30.8837 30.8838L22.1338 39.6338C21.8994 39.8682 21.5815 40 21.25 40Z" fill="#CE2127"/>
<path d="M58.75 40C58.4185 40 58.1006 39.8682 57.8662 39.6338L49.1162 30.8838C48.8886 30.648 48.7626 30.3323 48.7654 30.0045C48.7683 29.6768 48.8997 29.3633 49.1315 29.1315C49.3632 28.8997 49.6767 28.7683 50.0045 28.7654C50.3322 28.7626 50.648 28.8886 50.8837 29.1163L59.6337 37.8663C59.8085 38.0411 59.9275 38.2638 59.9757 38.5062C60.0239 38.7487 59.9992 39 59.9046 39.2283C59.81 39.4567 59.6498 39.6519 59.4443 39.7893C59.2388 39.9266 58.9972 40 58.75 40Z" fill="#CE2127"/>
<path d="M52.5 65H27.5C27.1685 65 26.8505 64.8683 26.6161 64.6339C26.3817 64.3995 26.25 64.0815 26.25 63.75C26.25 63.4185 26.3817 63.1005 26.6161 62.8661C26.8505 62.6317 27.1685 62.5 27.5 62.5H52.5C52.8315 62.5 53.1495 62.6317 53.3839 62.8661C53.6183 63.1005 53.75 63.4185 53.75 63.75C53.75 64.0815 53.6183 64.3995 53.3839 64.6339C53.1495 64.8683 52.8315 65 52.5 65Z" fill="#CE2127"/>
<path d="M40 48.75C36.8551 48.8292 33.7231 48.3205 30.765 47.25C28.0687 46.1525 27.5 44.74 27.5 43.75C27.5 42.76 28.0687 41.3475 30.7787 40.2425C30.9314 40.1768 31.0957 40.1421 31.262 40.1407C31.4282 40.1392 31.5931 40.1709 31.7469 40.2339C31.9007 40.297 32.0404 40.39 32.1579 40.5077C32.2753 40.6254 32.3681 40.7653 32.4307 40.9193C32.4934 41.0733 32.5248 41.2382 32.5229 41.4044C32.5211 41.5706 32.4861 41.7348 32.4201 41.8874C32.354 42.0399 32.2582 42.1778 32.1382 42.2929C32.0182 42.4079 31.8764 42.4979 31.7213 42.5575C30.2988 43.1375 30 43.67 30 43.75C30 43.83 30.2988 44.3625 31.7213 44.9425C34.3762 45.8868 37.1833 46.3301 40 46.25C42.8118 46.3305 45.6142 45.8889 48.265 44.9475C49.7013 44.3625 50 43.83 50 43.75C50 43.67 49.7013 43.1375 48.2788 42.5575C48.1236 42.4979 47.9818 42.4079 47.8618 42.2929C47.7418 42.1778 47.646 42.0399 47.5799 41.8874C47.5139 41.7348 47.4789 41.5706 47.4771 41.4044C47.4752 41.2382 47.5066 41.0733 47.5693 40.9193C47.6319 40.7653 47.7247 40.6254 47.8421 40.5077C47.9596 40.39 48.0993 40.297 48.2531 40.2339C48.4069 40.1709 48.5718 40.1392 48.738 40.1407C48.9043 40.1421 49.0686 40.1768 49.2212 40.2425C51.9312 41.3475 52.5 42.76 52.5 43.75C52.5 44.74 51.9312 46.1525 49.2212 47.2575C46.2671 48.3242 43.1398 48.8303 40 48.75Z" fill="#CE2127"/>
<path d="M46.25 27.5H45C44.6685 27.5 44.3505 27.3683 44.1161 27.1339C43.8817 26.8995 43.75 26.5815 43.75 26.25C43.75 25.9185 43.8817 25.6005 44.1161 25.3661C44.3505 25.1317 44.6685 25 45 25H46.25C46.5815 25 46.8995 24.8683 47.1339 24.6339C47.3683 24.3995 47.5 24.0815 47.5 23.75V16.25C47.5 15.9185 47.3683 15.6005 47.1339 15.3661C46.8995 15.1317 46.5815 15 46.25 15H33.75C33.4185 15 33.1005 15.1317 32.8661 15.3661C32.6317 15.6005 32.5 15.9185 32.5 16.25V23.75C32.5 24.0815 32.6317 24.3995 32.8661 24.6339C33.1005 24.8683 33.4185 25 33.75 25H35C35.3315 25 35.6495 25.1317 35.8839 25.3661C36.1183 25.6005 36.25 25.9185 36.25 26.25C36.25 26.5815 36.1183 26.8995 35.8839 27.1339C35.6495 27.3683 35.3315 27.5 35 27.5H33.75C32.7554 27.5 31.8016 27.1049 31.0983 26.4017C30.3951 25.6984 30 24.7446 30 23.75V16.25C30 15.2554 30.3951 14.3016 31.0983 13.5983C31.8016 12.8951 32.7554 12.5 33.75 12.5H46.25C47.2446 12.5 48.1984 12.8951 48.9016 13.5983C49.6049 14.3016 50 15.2554 50 16.25V23.75C50 24.7446 49.6049 25.6984 48.9016 26.4017C48.1984 27.1049 47.2446 27.5 46.25 27.5Z" fill="#CE2127"/>
<path d="M40 11.25C39.0111 11.25 38.0444 10.9568 37.2222 10.4074C36.3999 9.85794 35.759 9.07705 35.3806 8.16342C35.0022 7.24979 34.9031 6.24446 35.0961 5.27455C35.289 4.30465 35.7652 3.41373 36.4645 2.71447C37.1637 2.01521 38.0546 1.539 39.0246 1.34608C39.9945 1.15315 40.9998 1.25217 41.9134 1.6306C42.8271 2.00904 43.6079 2.64991 44.1574 3.47215C44.7068 4.2944 45 5.2611 45 6.25C45 7.57609 44.4732 8.84785 43.5355 9.78554C42.5979 10.7232 41.3261 11.25 40 11.25ZM40 3.75C39.5055 3.75 39.0222 3.89662 38.6111 4.17133C38.2 4.44603 37.8795 4.83648 37.6903 5.29329C37.5011 5.75011 37.4516 6.25278 37.548 6.73773C37.6445 7.22268 37.8826 7.66814 38.2322 8.01777C38.5819 8.3674 39.0273 8.6055 39.5123 8.70197C39.9972 8.79843 40.4999 8.74892 40.9567 8.5597C41.4135 8.37048 41.804 8.05005 42.0787 7.63893C42.3534 7.2278 42.5 6.74446 42.5 6.25C42.5 5.58696 42.2366 4.95108 41.7678 4.48224C41.2989 4.01339 40.663 3.75 40 3.75Z" fill="#CE2127"/>
<path d="M45 45H35C34.6685 45 34.3505 44.8683 34.1161 44.6339C33.8817 44.3995 33.75 44.0815 33.75 43.75V17.5C33.75 17.1685 33.8817 16.8505 34.1161 16.6161C34.3505 16.3817 34.6685 16.25 35 16.25C35.3315 16.25 35.6495 16.3817 35.8839 16.6161C36.1183 16.8505 36.25 17.1685 36.25 17.5V42.5H43.75V17.5C43.75 17.1685 43.8817 16.8505 44.1161 16.6161C44.3505 16.3817 44.6685 16.25 45 16.25C45.3315 16.25 45.6495 16.3817 45.8839 16.6161C46.1183 16.8505 46.25 17.1685 46.25 17.5V43.75C46.25 44.0815 46.1183 44.3995 45.8839 44.6339C45.6495 44.8683 45.3315 45 45 45Z" fill="#CE2127"/>
<path d="M40 45C39.6685 45 39.3505 44.8683 39.1161 44.6339C38.8817 44.3995 38.75 44.0815 38.75 43.75V27.5C38.75 27.1685 38.8817 26.8505 39.1161 26.6161C39.3505 26.3817 39.6685 26.25 40 26.25C40.3315 26.25 40.6495 26.3817 40.8839 26.6161C41.1183 26.8505 41.25 27.1685 41.25 27.5V43.75C41.25 44.0815 41.1183 44.3995 40.8839 44.6339C40.6495 44.8683 40.3315 45 40 45Z" fill="#CE2127"/>
<path d="M66.25 78.75C63.1051 78.8292 59.9731 78.3205 57.015 77.25C54.3187 76.1525 53.75 74.74 53.75 73.75C53.75 72.76 54.3188 71.3475 57.0288 70.2425C57.1814 70.1768 57.3457 70.1421 57.512 70.1407C57.6782 70.1392 57.843 70.1709 57.9969 70.2339C58.1507 70.297 58.2904 70.39 58.4079 70.5077C58.5253 70.6254 58.6181 70.7653 58.6807 70.9193C58.7434 71.0733 58.7748 71.2382 58.7729 71.4044C58.7711 71.5706 58.7361 71.7348 58.6701 71.8874C58.604 72.0399 58.5082 72.1778 58.3882 72.2929C58.2682 72.4079 58.1264 72.4979 57.9712 72.5575C56.5487 73.1375 56.25 73.67 56.25 73.75C56.25 73.83 56.5487 74.3625 57.9712 74.9425C60.6262 75.8868 63.4333 76.3301 66.25 76.25C69.0618 76.3305 71.8642 75.8889 74.515 74.9475C75.9513 74.3625 76.25 73.83 76.25 73.75C76.25 73.67 75.9513 73.1375 74.5288 72.5575C74.3736 72.4979 74.2318 72.4079 74.1118 72.2929C73.9918 72.1778 73.896 72.0399 73.8299 71.8874C73.7639 71.7348 73.7289 71.5706 73.7271 71.4044C73.7252 71.2382 73.7566 71.0733 73.8193 70.9193C73.8819 70.7653 73.9747 70.6254 74.0921 70.5077C74.2096 70.39 74.3493 70.297 74.5031 70.2339C74.6569 70.1709 74.8218 70.1392 74.988 70.1407C75.1543 70.1421 75.3186 70.1768 75.4712 70.2425C78.1812 71.3475 78.75 72.76 78.75 73.75C78.75 74.74 78.1812 76.1525 75.4712 77.2575C72.5171 78.3242 69.3898 78.8303 66.25 78.75Z" fill="#CE2127"/>
<path d="M72.5 57.5H71.25C70.9185 57.5 70.6005 57.3683 70.3661 57.1339C70.1317 56.8995 70 56.5815 70 56.25C70 55.9185 70.1317 55.6005 70.3661 55.3661C70.6005 55.1317 70.9185 55 71.25 55H72.5C72.8315 55 73.1495 54.8683 73.3839 54.6339C73.6183 54.3995 73.75 54.0815 73.75 53.75V46.25C73.75 45.9185 73.6183 45.6005 73.3839 45.3661C73.1495 45.1317 72.8315 45 72.5 45H60C59.6685 45 59.3505 45.1317 59.1161 45.3661C58.8817 45.6005 58.75 45.9185 58.75 46.25V53.75C58.75 54.0815 58.8817 54.3995 59.1161 54.6339C59.3505 54.8683 59.6685 55 60 55H61.25C61.5815 55 61.8995 55.1317 62.1339 55.3661C62.3683 55.6005 62.5 55.9185 62.5 56.25C62.5 56.5815 62.3683 56.8995 62.1339 57.1339C61.8995 57.3683 61.5815 57.5 61.25 57.5H60C59.0054 57.5 58.0516 57.1049 57.3484 56.4016C56.6451 55.6984 56.25 54.7446 56.25 53.75V46.25C56.25 45.2554 56.6451 44.3016 57.3484 43.5984C58.0516 42.8951 59.0054 42.5 60 42.5H72.5C73.4946 42.5 74.4484 42.8951 75.1516 43.5984C75.8549 44.3016 76.25 45.2554 76.25 46.25V53.75C76.25 54.7446 75.8549 55.6984 75.1516 56.4016C74.4484 57.1049 73.4946 57.5 72.5 57.5Z" fill="#CE2127"/>
<path d="M66.25 41.25C65.2611 41.25 64.2944 40.9568 63.4721 40.4074C62.6499 39.8579 62.009 39.077 61.6306 38.1634C61.2522 37.2498 61.1531 36.2445 61.3461 35.2746C61.539 34.3046 62.0152 33.4137 62.7145 32.7145C63.4137 32.0152 64.3046 31.539 65.2745 31.3461C66.2444 31.1531 67.2498 31.2522 68.1634 31.6306C69.077 32.009 69.8579 32.6499 70.4073 33.4722C70.9567 34.2944 71.25 35.2611 71.25 36.25C71.25 37.5761 70.7232 38.8479 69.7855 39.7855C68.8478 40.7232 67.5761 41.25 66.25 41.25ZM66.25 33.75C65.7555 33.75 65.2722 33.8966 64.8611 34.1713C64.4499 34.446 64.1295 34.8365 63.9403 35.2933C63.7511 35.7501 63.7016 36.2528 63.798 36.7377C63.8945 37.2227 64.1326 37.6681 64.4822 38.0178C64.8319 38.3674 65.2773 38.6055 65.7623 38.702C66.2472 38.7984 66.7499 38.7489 67.2067 38.5597C67.6635 38.3705 68.054 38.0501 68.3287 37.6389C68.6034 37.2278 68.75 36.7445 68.75 36.25C68.75 35.587 68.4866 34.9511 68.0178 34.4822C67.5489 34.0134 66.913 33.75 66.25 33.75Z" fill="#CE2127"/>
<path d="M71.25 75H61.25C60.9185 75 60.6005 74.8683 60.3661 74.6339C60.1317 74.3995 60 74.0815 60 73.75V47.5C60 47.1685 60.1317 46.8505 60.3661 46.6161C60.6005 46.3817 60.9185 46.25 61.25 46.25C61.5815 46.25 61.8995 46.3817 62.1339 46.6161C62.3683 46.8505 62.5 47.1685 62.5 47.5V72.5H70V47.5C70 47.1685 70.1317 46.8505 70.3661 46.6161C70.6005 46.3817 70.9185 46.25 71.25 46.25C71.5815 46.25 71.8995 46.3817 72.1339 46.6161C72.3683 46.8505 72.5 47.1685 72.5 47.5V73.75C72.5 74.0815 72.3683 74.3995 72.1339 74.6339C71.8995 74.8683 71.5815 75 71.25 75Z" fill="#CE2127"/>
<path d="M66.25 75C65.9185 75 65.6005 74.8683 65.3661 74.6339C65.1317 74.3995 65 74.0815 65 73.75V57.5C65 57.1685 65.1317 56.8505 65.3661 56.6161C65.6005 56.3817 65.9185 56.25 66.25 56.25C66.5815 56.25 66.8995 56.3817 67.1339 56.6161C67.3683 56.8505 67.5 57.1685 67.5 57.5V73.75C67.5 74.0815 67.3683 74.3995 67.1339 74.6339C66.8995 74.8683 66.5815 75 66.25 75Z" fill="#CE2127"/>
<path d="M13.75 78.75C10.6051 78.8292 7.47312 78.3205 4.515 77.25C1.81875 76.1525 1.25 74.74 1.25 73.75C1.25 72.76 1.81875 71.3475 4.52875 70.2425C4.68145 70.1768 4.84572 70.1421 5.01196 70.1407C5.17819 70.1392 5.34305 70.1709 5.49689 70.2339C5.65072 70.297 5.79044 70.39 5.90786 70.5077C6.02528 70.6254 6.11805 70.7653 6.18074 70.9193C6.24342 71.0733 6.27477 71.2382 6.27293 71.4044C6.2711 71.5706 6.23612 71.7348 6.17006 71.8874C6.10399 72.0399 6.00816 72.1778 5.88816 72.2929C5.76817 72.4079 5.62644 72.4979 5.47125 72.5575C4.04875 73.1375 3.75 73.67 3.75 73.75C3.75 73.83 4.04875 74.3625 5.47125 74.9425C8.12616 75.8868 10.9333 76.3301 13.75 76.25C16.5618 76.3305 19.3642 75.8889 22.015 74.9475C23.4513 74.3625 23.75 73.83 23.75 73.75C23.75 73.67 23.4512 73.1375 22.0287 72.5575C21.8736 72.4979 21.7318 72.4079 21.6118 72.2929C21.4918 72.1778 21.396 72.0399 21.3299 71.8874C21.2639 71.7348 21.2289 71.5706 21.2271 71.4044C21.2252 71.2382 21.2566 71.0733 21.3193 70.9193C21.3819 70.7653 21.4747 70.6254 21.5921 70.5077C21.7096 70.39 21.8493 70.297 22.0031 70.2339C22.1569 70.1709 22.3218 70.1392 22.488 70.1407C22.6543 70.1421 22.8186 70.1768 22.9713 70.2425C25.6813 71.3475 26.25 72.76 26.25 73.75C26.25 74.74 25.6813 76.1525 22.9713 77.2575C20.0171 78.3242 16.8898 78.8303 13.75 78.75Z" fill="#CE2127"/>
<path d="M20 57.5H18.75C18.4185 57.5 18.1005 57.3683 17.8661 57.1339C17.6317 56.8995 17.5 56.5815 17.5 56.25C17.5 55.9185 17.6317 55.6005 17.8661 55.3661C18.1005 55.1317 18.4185 55 18.75 55H20C20.3315 55 20.6495 54.8683 20.8839 54.6339C21.1183 54.3995 21.25 54.0815 21.25 53.75V46.25C21.25 45.9185 21.1183 45.6005 20.8839 45.3661C20.6495 45.1317 20.3315 45 20 45H7.5C7.16848 45 6.85054 45.1317 6.61612 45.3661C6.3817 45.6005 6.25 45.9185 6.25 46.25V53.75C6.25 54.0815 6.3817 54.3995 6.61612 54.6339C6.85054 54.8683 7.16848 55 7.5 55H8.75C9.08152 55 9.39946 55.1317 9.63388 55.3661C9.8683 55.6005 10 55.9185 10 56.25C10 56.5815 9.8683 56.8995 9.63388 57.1339C9.39946 57.3683 9.08152 57.5 8.75 57.5H7.5C6.50544 57.5 5.55161 57.1049 4.84835 56.4016C4.14509 55.6984 3.75 54.7446 3.75 53.75V46.25C3.75 45.2554 4.14509 44.3016 4.84835 43.5984C5.55161 42.8951 6.50544 42.5 7.5 42.5H20C20.9946 42.5 21.9484 42.8951 22.6517 43.5984C23.3549 44.3016 23.75 45.2554 23.75 46.25V53.75C23.75 54.7446 23.3549 55.6984 22.6517 56.4016C21.9484 57.1049 20.9946 57.5 20 57.5Z" fill="#CE2127"/>
<path d="M13.75 41.25C12.7611 41.25 11.7944 40.9568 10.9722 40.4074C10.1499 39.8579 9.50904 39.077 9.1306 38.1634C8.75217 37.2498 8.65315 36.2445 8.84608 35.2746C9.039 34.3046 9.51521 33.4137 10.2145 32.7145C10.9137 32.0152 11.8046 31.539 12.7746 31.3461C13.7445 31.1531 14.7498 31.2522 15.6634 31.6306C16.5771 32.009 17.3579 32.6499 17.9074 33.4722C18.4568 34.2944 18.75 35.2611 18.75 36.25C18.75 37.5761 18.2232 38.8479 17.2855 39.7855C16.3479 40.7232 15.0761 41.25 13.75 41.25ZM13.75 33.75C13.2555 33.75 12.7722 33.8966 12.3611 34.1713C11.95 34.446 11.6295 34.8365 11.4403 35.2933C11.2511 35.7501 11.2016 36.2528 11.298 36.7377C11.3945 37.2227 11.6326 37.6681 11.9822 38.0178C12.3319 38.3674 12.7773 38.6055 13.2623 38.702C13.7472 38.7984 14.2499 38.7489 14.7067 38.5597C15.1635 38.3705 15.554 38.0501 15.8287 37.6389C16.1034 37.2278 16.25 36.7445 16.25 36.25C16.25 35.587 15.9866 34.9511 15.5178 34.4822C15.0489 34.0134 14.413 33.75 13.75 33.75Z" fill="#CE2127"/>
<path d="M18.75 75H8.75C8.41848 75 8.10054 74.8683 7.86612 74.6339C7.6317 74.3995 7.5 74.0815 7.5 73.75V47.5C7.5 47.1685 7.6317 46.8505 7.86612 46.6161C8.10054 46.3817 8.41848 46.25 8.75 46.25C9.08152 46.25 9.39946 46.3817 9.63388 46.6161C9.8683 46.8505 10 47.1685 10 47.5V72.5H17.5V47.5C17.5 47.1685 17.6317 46.8505 17.8661 46.6161C18.1005 46.3817 18.4185 46.25 18.75 46.25C19.0815 46.25 19.3995 46.3817 19.6339 46.6161C19.8683 46.8505 20 47.1685 20 47.5V73.75C20 74.0815 19.8683 74.3995 19.6339 74.6339C19.3995 74.8683 19.0815 75 18.75 75Z" fill="#CE2127"/>
<path d="M13.75 75C13.4185 75 13.1005 74.8683 12.8661 74.6339C12.6317 74.3995 12.5 74.0815 12.5 73.75V57.5C12.5 57.1685 12.6317 56.8505 12.8661 56.6161C13.1005 56.3817 13.4185 56.25 13.75 56.25C14.0815 56.25 14.3995 56.3817 14.6339 56.6161C14.8683 56.8505 15 57.1685 15 57.5V73.75C15 74.0815 14.8683 74.3995 14.6339 74.6339C14.3995 74.8683 14.0815 75 13.75 75Z" fill="#CE2127"/>
</svg>
