<svg width="104" height="67" viewBox="0 0 104 67" fill="none" xmlns="http://www.w3.org/2000/svg">
<path d="M60.118 0.763932C58.8831 0.146459 57.3814 0.64702 56.7639 1.88197C56.1465 3.11691 56.647 4.61859 57.882 5.23607L60.118 0.763932ZM1.23223 46.2322C0.255922 47.2085 0.255922 48.7915 1.23223 49.7678L17.1421 65.6777C18.1184 66.654 19.7014 66.654 20.6777 65.6777C21.654 64.7014 21.654 63.1184 20.6777 62.1421L6.53553 48L20.6777 33.8579C21.654 32.8816 21.654 31.2986 20.6777 30.3223C19.7014 29.346 18.1184 29.346 17.1421 30.3223L1.23223 46.2322ZM57.882 5.23607C67.7175 10.1538 70.9389 14.8724 71.096 18.5747C71.2555 22.3339 68.3423 26.6412 61.8723 30.9138C49.1513 39.3145 25.6774 45.5 3 45.5V50.5C26.3226 50.5 50.8487 44.1855 64.6277 35.0862C71.4077 30.6088 76.3695 24.9161 76.0915 18.3628C75.8111 11.7526 70.2825 5.84619 60.118 0.763932L57.882 5.23607Z" fill="#CE2127"/>
</svg>
