<svg width="80" height="80" viewBox="0 0 80 80" fill="none" xmlns="http://www.w3.org/2000/svg">
<path d="M23.3333 30.8334C23.7753 30.8334 24.1993 30.6577 24.5118 30.3452C24.8243 30.0327 25 29.6087 25 29.1667C25 28.7247 24.8243 28.3007 24.5118 27.9882C24.1993 27.6757 23.7753 27.5 23.3333 27.5H20.8333V25C20.8333 24.558 20.6577 24.134 20.3452 23.8215C20.0327 23.509 19.6087 23.3334 19.1667 23.3334C18.7247 23.3334 18.3007 23.509 17.9882 23.8215C17.6757 24.134 17.5 24.558 17.5 25V27.5H15C14.558 27.5 14.134 27.6757 13.8215 27.9882C13.5089 28.3007 13.3333 28.7247 13.3333 29.1667C13.3333 29.6087 13.5089 30.0327 13.8215 30.3452C14.134 30.6577 14.558 30.8334 15 30.8334H17.5V33.3334C17.5 33.7754 17.6757 34.1994 17.9882 34.5119C18.3007 34.8244 18.7247 35 19.1667 35C19.6087 35 20.0327 34.8244 20.3452 34.5119C20.6577 34.1994 20.8333 33.7754 20.8333 33.3334V30.8334H23.3333Z" fill="#CE2127"/>
<path d="M60.8333 26.6667C61.7538 26.6667 62.5 25.9205 62.5 25C62.5 24.0795 61.7538 23.3334 60.8333 23.3334C59.9128 23.3334 59.1667 24.0795 59.1667 25C59.1667 25.9205 59.9128 26.6667 60.8333 26.6667Z" fill="#CE2127"/>
<path d="M60.8333 35C61.7538 35 62.5 34.2538 62.5 33.3333C62.5 32.4128 61.7538 31.6666 60.8333 31.6666C59.9128 31.6666 59.1667 32.4128 59.1667 33.3333C59.1667 34.2538 59.9128 35 60.8333 35Z" fill="#CE2127"/>
<path d="M65 30.8333C65.9205 30.8333 66.6667 30.0872 66.6667 29.1667C66.6667 28.2462 65.9205 27.5 65 27.5C64.0795 27.5 63.3333 28.2462 63.3333 29.1667C63.3333 30.0872 64.0795 30.8333 65 30.8333Z" fill="#CE2127"/>
<path d="M56.6667 30.8333C57.5872 30.8333 58.3333 30.0872 58.3333 29.1667C58.3333 28.2462 57.5872 27.5 56.6667 27.5C55.7462 27.5 55 28.2462 55 29.1667C55 30.0872 55.7462 30.8333 56.6667 30.8333Z" fill="#CE2127"/>
<path d="M27.5 36.6666C26.3463 36.6666 25.2185 37.0088 24.2592 37.6498C23.2998 38.2906 22.5522 39.2018 22.1107 40.2676C21.6692 41.3335 21.5537 42.5065 21.7788 43.638C22.0038 44.7695 22.5593 45.809 23.3752 46.6248C24.191 47.4406 25.2305 47.9961 26.362 48.2211C27.4935 48.4463 28.6665 48.3308 29.7323 47.8893C30.7982 47.4478 31.7093 46.7001 32.3502 45.7408C32.9912 44.7815 33.3333 43.6536 33.3333 42.5C33.3333 40.9528 32.7188 39.4691 31.6248 38.3751C30.5308 37.2811 29.0472 36.6666 27.5 36.6666ZM27.5 45C27.0055 45 26.5222 44.8533 26.111 44.5786C25.7 44.304 25.3795 43.9135 25.1903 43.4566C25.0012 42.9998 24.9515 42.4971 25.048 42.0123C25.1445 41.5273 25.3827 41.0818 25.7322 40.7321C26.0818 40.3826 26.5273 40.1445 27.0123 40.048C27.4972 39.9515 27.9998 40.0011 28.4567 40.1903C28.9135 40.3795 29.304 40.7 29.5787 41.111C29.8533 41.5221 30 42.0055 30 42.5C30 43.163 29.7367 43.799 29.2678 44.2678C28.799 44.7366 28.163 45 27.5 45Z" fill="#CE2127"/>
<path d="M52.5 36.6666C51.3463 36.6666 50.2185 37.0088 49.2592 37.6498C48.2998 38.2906 47.5522 39.2018 47.1107 40.2676C46.6692 41.3335 46.5537 42.5065 46.7788 43.638C47.0038 44.7695 47.5593 45.809 48.3752 46.6248C49.191 47.4406 50.2305 47.9961 51.362 48.2211C52.4935 48.4463 53.6665 48.3308 54.7323 47.8893C55.7982 47.4478 56.7093 46.7001 57.3502 45.7408C57.9912 44.7815 58.3333 43.6536 58.3333 42.5C58.3333 40.9528 57.7187 39.4691 56.6248 38.3751C55.5308 37.2811 54.0472 36.6666 52.5 36.6666ZM52.5 45C52.0055 45 51.5222 44.8533 51.111 44.5786C50.7 44.304 50.3795 43.9135 50.1903 43.4566C50.001 42.9998 49.9515 42.4971 50.048 42.0123C50.1445 41.5273 50.3827 41.0818 50.7322 40.7321C51.0818 40.3826 51.5273 40.1445 52.0123 40.048C52.4972 39.9515 52.9998 40.0011 53.4567 40.1903C53.9135 40.3795 54.304 40.7 54.5787 41.111C54.8533 41.5221 55 42.0055 55 42.5C55 43.163 54.7367 43.799 54.2678 44.2678C53.799 44.7366 53.163 45 52.5 45Z" fill="#CE2127"/>
<path d="M36.6667 31.6666H35C34.558 31.6666 34.134 31.8423 33.8215 32.1548C33.509 32.4673 33.3333 32.8913 33.3333 33.3333C33.3333 33.7753 33.509 34.1993 33.8215 34.5118C34.134 34.8243 34.558 35 35 35H36.6667C37.1087 35 37.5327 34.8243 37.8452 34.5118C38.1577 34.1993 38.3333 33.7753 38.3333 33.3333C38.3333 32.8913 38.1577 32.4673 37.8452 32.1548C37.5327 31.8423 37.1087 31.6666 36.6667 31.6666Z" fill="#CE2127"/>
<path d="M45 31.6666H43.3333C42.8913 31.6666 42.4673 31.8423 42.1548 32.1548C41.8423 32.4673 41.6667 32.8913 41.6667 33.3333C41.6667 33.7753 41.8423 34.1993 42.1548 34.5118C42.4673 34.8243 42.8913 35 43.3333 35H45C45.442 35 45.866 34.8243 46.1785 34.5118C46.491 34.1993 46.6667 33.7753 46.6667 33.3333C46.6667 32.8913 46.491 32.4673 46.1785 32.1548C45.866 31.8423 45.442 31.6666 45 31.6666Z" fill="#CE2127"/>
<path d="M74.1367 24.5716C73.6218 22.6486 72.7332 20.846 71.5215 19.2665C70.3097 17.687 68.7987 16.3617 67.0747 15.3664C65.3507 14.371 63.4473 13.7251 61.4737 13.4655C59.5 13.2059 57.4945 13.3376 55.5717 13.8533C52.4028 14.8745 49.5988 16.794 47.5 19.3783C47.3363 19.5783 47.1293 19.7381 46.8945 19.846C46.6597 19.9536 46.4033 20.0063 46.145 20H33.8617C33.6035 20.006 33.3472 19.9531 33.1125 19.8455C32.8777 19.7376 32.6705 19.578 32.5067 19.3783C30.407 16.7935 27.6017 14.874 24.4317 13.8533C22.5087 13.3371 20.5028 13.205 18.5287 13.4644C16.5546 13.7237 14.651 14.3696 12.9266 15.365C11.2022 16.3603 9.69082 17.6858 8.47888 19.2655C7.26693 20.8453 6.37815 22.6483 5.86333 24.5716C-0.953335 50.015 0.521668 63.6666 10.3733 66.305C16.485 67.945 22.04 64.1383 26.925 54.9833C27.1217 54.995 27.3117 55 27.5 55C30.6502 55.0098 33.6853 53.8176 35.9867 51.6666H44.0133C46.3147 53.8176 49.3498 55.0098 52.5 55C52.6883 55 52.8783 55 53.075 54.9833C57.22 62.7566 61.8583 66.675 66.9083 66.675C67.8273 66.6716 68.7418 66.5473 69.6283 66.305C79.4783 63.6666 80.9533 50.015 74.1367 24.5716ZM68.7633 63.0866C64.1617 64.3183 59.7117 60.7416 55.52 52.46C55.3627 52.1496 55.1123 51.8965 54.8038 51.7356C54.4955 51.5748 54.1443 51.5146 53.8 51.5633C53.3697 51.628 52.9352 51.6625 52.5 51.6666C51.2653 51.67 50.043 51.4215 48.9075 50.9363C47.7722 50.4511 46.7477 49.7395 45.8967 48.845C45.741 48.683 45.554 48.5541 45.3473 48.4661C45.1405 48.3783 44.918 48.3331 44.6933 48.3333H35.3067C35.082 48.3331 34.8595 48.3783 34.6527 48.4661C34.446 48.5541 34.259 48.683 34.1033 48.845C33.2523 49.7395 32.2278 50.4511 31.0925 50.9363C29.957 51.4215 28.7347 51.67 27.5 51.6666C27.0648 51.6625 26.6303 51.628 26.2 51.5633C25.8557 51.5146 25.5045 51.5748 25.1962 51.7356C24.8877 51.8965 24.6373 52.1496 24.48 52.46C20.2883 60.7416 15.8317 64.32 11.2367 63.0866C3.765 61.0866 3.02 48.0633 9.08167 25.435C9.75662 22.9245 11.2388 20.7058 13.2996 19.1213C15.3605 17.5366 17.8853 16.6741 20.485 16.6666C21.5252 16.6673 22.5607 16.8046 23.565 17.075C26.0273 17.9013 28.208 19.4028 29.8583 21.4083C30.3343 22.0128 30.9422 22.5005 31.6353 22.8341C32.3287 23.1676 33.089 23.3385 33.8583 23.3333H46.1417C46.9113 23.3381 47.6718 23.167 48.3652 22.8328C49.0585 22.4985 49.6662 22.0101 50.1417 21.405C51.7923 19.3998 53.9728 17.8983 56.435 17.0716C59.4643 16.262 62.6912 16.688 65.4068 18.2556C68.1223 19.8235 70.1047 22.405 70.9183 25.4333C76.98 48.0633 76.235 61.0833 68.7633 63.0866Z" fill="#CE2127"/>
</svg>
